<svg width="967" height="374" viewBox="0 0 967 374" fill="none" xmlns="http://www.w3.org/2000/svg">
<g clip-path="url(#clip0_1_29)">
<mask id="mask0_1_29" style="mask-type:alpha" maskUnits="userSpaceOnUse" x="-31" y="-34" width="1046" height="448">
<rect x="-31" y="-34" width="1046" height="448" fill="url(#paint0_linear_1_29)"/>
</mask>
<g mask="url(#mask0_1_29)">
<rect x="0.5" y="0.5" width="966" height="465" rx="15.5" stroke="#FFEA32"/>
<rect x="147" y="1" width="1" height="442" fill="#FFEA32"/>
<rect x="371" y="1" width="1" height="442" fill="#FFEA32"/>
<rect x="595" y="1" width="1" height="442" fill="#FFEA32"/>
<rect x="819" y="1" width="1" height="442" fill="#FFEA32"/>
<path d="M967 94L967 95L1.80761e-05 94.9999L1.81198e-05 93.9999L967 94Z" fill="#FFEA32"/>
<path d="M967 191L967 192L1.80761e-05 192L1.81198e-05 191L967 191Z" fill="#FFEA32"/>
<path d="M967 288L967 289L1.80761e-05 289L1.81198e-05 288L967 288Z" fill="#FFEA32"/>
</g>
</g>
<defs>
<linearGradient id="paint0_linear_1_29" x1="356" y1="13.4861" x2="482.123" y2="417.086" gradientUnits="userSpaceOnUse">
<stop/>
<stop offset="1" stop-color="white" stop-opacity="0"/>
</linearGradient>
<clipPath id="clip0_1_29">
<rect width="967" height="414" fill="white"/>
</clipPath>
</defs>
</svg>
